<svg aria-hidden="true" style="position: absolute; width: 0; height: 0; overflow: hidden;" version="1.1" xmlns="http://www.w3.org/2000/svg" xmlns:xlink="http://www.w3.org/1999/xlink">
<defs>
<symbol id="icon-board-1" viewBox="0 0 32 32">
<path stroke-linejoin="round" stroke-linecap="round" stroke-miterlimit="4" stroke-width="2.6667" d="M16 27.296c1.415 1.267 3.284 2.037 5.333 2.037 4.418 0 8-3.582 8-8 0-3.689-2.497-6.795-5.893-7.72M8.56 13.614c-3.396 0.925-5.894 4.031-5.894 7.72 0 4.418 3.582 8 8 8s8-3.582 8-8c0-1.041-0.199-2.035-0.56-2.947M24 10.667c0 4.418-3.582 8-8 8s-8-3.582-8-8 3.582-8 8-8c4.418 0 8 3.582 8 8z"></path>
</symbol>
<symbol id="icon-board-2" viewBox="0 0 32 32">
<path stroke-linejoin="round" stroke-linecap="round" stroke-miterlimit="4" stroke-width="2.6667" d="M27.333 9.704l-11.333 6.296M16 16l-11.333-6.296M16 16l0 12.667M28 21.411v-10.823c0-0.457 0-0.685-0.067-0.889-0.060-0.18-0.157-0.346-0.285-0.485-0.145-0.158-0.345-0.269-0.744-0.491l-9.867-5.481c-0.378-0.21-0.567-0.315-0.767-0.356-0.177-0.036-0.36-0.036-0.537 0-0.2 0.041-0.389 0.146-0.767 0.356l-9.867 5.481c-0.399 0.222-0.599 0.333-0.744 0.491-0.129 0.14-0.226 0.305-0.286 0.485-0.067 0.204-0.067 0.432-0.067 0.889v10.823c0 0.457 0 0.685 0.067 0.889 0.060 0.18 0.157 0.346 0.286 0.485 0.145 0.158 0.345 0.269 0.744 0.491l9.867 5.481c0.378 0.21 0.567 0.315 0.767 0.356 0.177 0.036 0.36 0.036 0.537 0 0.2-0.041 0.389-0.146 0.767-0.356l9.867-5.481c0.399-0.222 0.599-0.333 0.744-0.491 0.129-0.14 0.226-0.305 0.285-0.485 0.067-0.204 0.067-0.432 0.067-0.889z"></path>
</symbol>
<symbol id="icon-board-3" viewBox="0 0 32 32">
<path stroke-linejoin="round" stroke-linecap="round" stroke-miterlimit="4" stroke-width="2.6667" d="M14.964 3.242c0.378-0.21 0.567-0.315 0.767-0.356 0.177-0.036 0.36-0.036 0.537 0 0.2 0.041 0.389 0.146 0.767 0.356l9.867 5.481c0.399 0.222 0.599 0.333 0.744 0.491 0.129 0.14 0.226 0.305 0.285 0.485 0.067 0.204 0.067 0.432 0.067 0.889v10.823c0 0.457 0 0.685-0.067 0.889-0.060 0.18-0.157 0.346-0.285 0.485-0.145 0.158-0.345 0.269-0.744 0.491l-9.867 5.481c-0.378 0.21-0.567 0.315-0.767 0.356-0.177 0.036-0.36 0.036-0.537 0-0.2-0.041-0.389-0.146-0.767-0.356l-9.867-5.481c-0.399-0.222-0.599-0.333-0.744-0.491-0.129-0.14-0.226-0.305-0.286-0.485-0.067-0.204-0.067-0.432-0.067-0.889v-10.823c0-0.457 0-0.685 0.067-0.889 0.060-0.18 0.157-0.346 0.286-0.485 0.145-0.158 0.345-0.269 0.744-0.491l9.867-5.481z"></path>
</symbol>
<symbol id="icon-board-4" viewBox="0 0 32 32">
<path stroke-linejoin="round" stroke-linecap="round" stroke-miterlimit="4" stroke-width="2.6667" d="M18.999 2.667h-7.674c-0.239 0-0.359 0-0.465 0.036-0.093 0.032-0.178 0.085-0.249 0.154-0.080 0.078-0.133 0.185-0.24 0.399l-5.6 11.2c-0.256 0.511-0.383 0.767-0.353 0.974 0.027 0.181 0.127 0.344 0.277 0.449 0.172 0.12 0.458 0.12 1.029 0.12h8.274l-4 13.333 16.258-16.86c0.548-0.569 0.823-0.853 0.839-1.097 0.014-0.211-0.073-0.417-0.235-0.553-0.186-0.157-0.581-0.157-1.372-0.157h-9.49l3-8z"></path>
</symbol>
<symbol id="icon-board-5" viewBox="0 0 32 32">
<path stroke-linejoin="round" stroke-linecap="round" stroke-miterlimit="4" stroke-width="2.6667" d="M4.454 22.666c-1.67-2.893-0.821-6.58 1.944-8.453l0.003-0.003c2.221-1.501 5.143-1.45 7.312 0.126l4.576 3.327c2.167 1.576 5.090 1.627 7.312 0.126l0.003-0.003c2.766-1.872 3.616-5.563 1.943-8.453M22.669 27.546c-2.893 1.669-6.58 0.821-8.453-1.944l-0.003-0.003c-1.501-2.221-1.45-5.143 0.126-7.312l3.327-4.576c1.576-2.167 1.627-5.090 0.126-7.312l-0.006-0.003c-1.872-2.763-5.563-3.615-8.453-1.942M25.427 6.572c5.207 5.207 5.207 13.648 0 18.855s-13.648 5.207-18.855 0c-5.207-5.207-5.207-13.648 0-18.855s13.648-5.207 18.855 0z"></path>
</symbol>
<symbol id="icon-board-6" viewBox="0 0 32 32">
<path stroke-linejoin="round" stroke-linecap="round" stroke-miterlimit="4" stroke-width="2.6667" d="M16 2.667l2.683 6.975c0.376 0.978 0.564 1.466 0.856 1.878 0.259 0.364 0.577 0.683 0.942 0.942 0.411 0.292 0.9 0.48 1.878 0.856l6.975 2.683-6.975 2.683c-0.978 0.376-1.466 0.564-1.878 0.856-0.364 0.259-0.683 0.577-0.942 0.942-0.292 0.411-0.48 0.9-0.856 1.878l-2.683 6.975-2.683-6.975c-0.376-0.978-0.564-1.466-0.856-1.878-0.259-0.364-0.578-0.683-0.942-0.942-0.411-0.292-0.9-0.48-1.878-0.856l-6.975-2.683 6.975-2.683c0.978-0.376 1.466-0.564 1.878-0.856 0.364-0.259 0.683-0.578 0.942-0.942 0.292-0.411 0.48-0.9 0.856-1.878l2.683-6.975z"></path>
<symbol id="icon-board-bg" viewBox="0 0 37 32">
<path stroke-linejoin="round" stroke-linecap="round" stroke-miterlimit="4" stroke-width="2.2857" d="M28.952 29.714h1.54c1.48 0 2.22 0 2.628-0.309 0.355-0.269 0.575-0.68 0.602-1.124 0.031-0.511-0.38-1.126-1.201-2.358l-4.587-6.881c-0.678-1.017-1.018-1.526-1.445-1.703-0.374-0.155-0.794-0.155-1.167 0-0.428 0.177-0.767 0.686-1.445 1.703l-1.134 1.701M28.952 29.714l-11.71-16.914c-0.673-0.973-1.010-1.459-1.431-1.63-0.368-0.15-0.78-0.15-1.148 0-0.421 0.171-0.757 0.657-1.431 1.63l-9.061 13.088c-0.858 1.239-1.287 1.859-1.263 2.374 0.021 0.449 0.24 0.865 0.596 1.138 0.41 0.313 1.163 0.313 2.671 0.313h22.775zM32 6.857c0 2.525-2.047 4.571-4.571 4.571s-4.571-2.047-4.571-4.571c0-2.525 2.047-4.571 4.571-4.571s4.571 2.047 4.571 4.571z"></path>
</symbol>
</symbol>
</defs>
</svg>
